<svg width="133" height="38" viewBox="0 0 133 38" fill="none" xmlns="http://www.w3.org/2000/svg">
<g filter="url(#filter0_d_77_23)">
<path d="M11.308 16.172V17H7.312C6.6 17 6.04 16.9 5.632 16.7C5.224 16.5 4.928 16.184 4.744 15.752C4.568 15.312 4.48 14.716 4.48 13.964C4.48 13.22 4.564 12.624 4.732 12.176C4.908 11.728 5.192 11.4 5.584 11.192C5.984 10.984 6.52 10.88 7.192 10.88C7.488 10.88 7.94 10.896 8.548 10.928C9.164 10.952 9.628 10.98 9.94 11.012V16.172H11.308ZM5.404 13.94C5.404 14.492 5.468 14.928 5.596 15.248C5.732 15.568 5.948 15.804 6.244 15.956C6.54 16.1 6.948 16.172 7.468 16.172H9.016V11.792C8.312 11.744 7.768 11.72 7.384 11.72C6.656 11.72 6.144 11.892 5.848 12.236C5.552 12.58 5.404 13.148 5.404 13.94ZM6.34 8.876H7.252V9.884H6.34V8.876ZM7.84 8.876H8.752V9.884H7.84V8.876ZM15.8125 16.172V17H11.3125V16.172H13.1005V11H14.0245V16.172H15.8125ZM12.3445 17.96H13.2565V18.968H12.3445V17.96ZM13.8445 17.96H14.7565V18.968H13.8445V17.96ZM22.1365 16.172V17H15.8125V16.172H18.0565C17.8325 15.916 17.6445 15.572 17.4925 15.14C17.3405 14.708 17.2645 14.228 17.2645 13.7C17.2645 12.86 17.4805 12.18 17.9125 11.66C18.3525 11.14 18.9805 10.88 19.7965 10.88C20.1085 10.88 20.4405 10.924 20.7925 11.012C21.1525 11.092 21.4805 11.208 21.7765 11.36L21.7405 12.176C21.6205 12.088 21.3645 11.988 20.9725 11.876C20.5805 11.764 20.2245 11.708 19.9045 11.708C19.3525 11.708 18.9285 11.892 18.6325 12.26C18.3365 12.628 18.1885 13.128 18.1885 13.76C18.1885 14.28 18.2805 14.752 18.4645 15.176C18.6565 15.592 18.8925 15.924 19.1725 16.172H22.1365ZM25.6242 16.172V17H23.5722V8.384H24.4962V16.172H25.6242ZM33.9491 16.172V17H33.5651C33.4131 17 33.2491 16.96 33.0731 16.88C32.9051 16.792 32.7491 16.676 32.6051 16.532V17H25.6211V16.172H27.6011C27.4891 15.484 27.4331 14.784 27.4331 14.072C27.4331 13.536 27.4651 13.008 27.5291 12.488C27.5931 11.96 27.6651 11.532 27.7451 11.204C27.9371 11.124 28.2171 11.052 28.5851 10.988C28.9531 10.916 29.3411 10.88 29.7491 10.88C30.7251 10.88 31.4451 11.12 31.9091 11.6C32.3731 12.08 32.6051 12.88 32.6051 14V15.716C32.8611 16.02 33.1811 16.172 33.5651 16.172H33.9491ZM28.3571 14.072C28.3571 14.464 28.3731 14.856 28.4051 15.248C28.4451 15.632 28.4851 15.94 28.5251 16.172H31.6811V13.988C31.6811 13.172 31.5091 12.588 31.1651 12.236C30.8211 11.884 30.2971 11.708 29.5931 11.708C29.2011 11.708 28.8531 11.748 28.5491 11.828C28.4211 12.524 28.3571 13.272 28.3571 14.072ZM38.4531 16.172V17H33.9531V16.172H35.7411V11H36.6651V16.172H38.4531ZM34.9971 8.876H35.9091V9.884H34.9971V8.876ZM36.4971 8.876H37.4091V9.884H36.4971V8.876ZM42.2211 10.88C43.5331 10.88 44.1891 11.564 44.1891 12.932V17H38.4531V16.172H43.2651V12.92C43.2651 12.52 43.1611 12.22 42.9531 12.02C42.7451 11.812 42.4331 11.708 42.0171 11.708C41.6571 11.708 40.9451 11.772 39.8811 11.9L39.5451 11.936L39.5091 11.252C40.7171 11.004 41.6211 10.88 42.2211 10.88ZM41.3451 17.96H42.2571V18.968H41.3451V17.96ZM51.0662 8.384V17H45.3902V16.172H46.9262V10.004H47.8502V16.172H50.1542V8.384H51.0662ZM53.1034 8.384H54.0274V17H53.1034V8.384ZM65.0502 16.172V17H61.0542C60.3422 17 59.7822 16.9 59.3742 16.7C58.9662 16.5 58.6702 16.184 58.4862 15.752C58.3102 15.312 58.2222 14.716 58.2222 13.964C58.2222 13.22 58.3062 12.624 58.4742 12.176C58.6502 11.728 58.9342 11.4 59.3262 11.192C59.7262 10.984 60.2622 10.88 60.9342 10.88C61.2302 10.88 61.6822 10.896 62.2902 10.928C62.9062 10.952 63.3702 10.98 63.6822 11.012V16.172H65.0502ZM59.1462 13.94C59.1462 14.492 59.2102 14.928 59.3382 15.248C59.4742 15.568 59.6902 15.804 59.9862 15.956C60.2822 16.1 60.6902 16.172 61.2102 16.172H62.7582V11.792C62.0542 11.744 61.5102 11.72 61.1262 11.72C60.3982 11.72 59.8862 11.892 59.5902 12.236C59.2942 12.58 59.1462 13.148 59.1462 13.94ZM60.0822 8.876H60.9942V9.884H60.0822V8.876ZM61.5822 8.876H62.4942V9.884H61.5822V8.876ZM68.1301 8.036L70.6981 7.532V8.132L68.1301 8.636V8.036ZM74.4147 16.172V17H65.0547V16.172H66.1827V8.384H67.1067V13.64C67.6027 12.808 68.1267 12.14 68.6787 11.636C69.2307 11.132 69.8747 10.88 70.6107 10.88C71.0667 10.88 71.4947 10.984 71.8947 11.192C72.3027 11.4 72.6347 11.74 72.8907 12.212C73.1547 12.676 73.2867 13.268 73.2867 13.988V16.172H74.4147ZM70.4307 11.708C69.8627 11.708 69.3227 11.952 68.8107 12.44C68.3067 12.92 67.8947 13.488 67.5747 14.144C67.2627 14.792 67.1067 15.32 67.1067 15.728V16.172H72.3627V13.976C72.3627 13.448 72.2627 13.016 72.0627 12.68C71.8707 12.336 71.6267 12.088 71.3307 11.936C71.0347 11.784 70.7347 11.708 70.4307 11.708ZM69.1587 8.876H70.0707V9.884H69.1587V8.876ZM76.9191 8.036L79.4871 7.532V8.132L76.9191 8.636V8.036ZM81.69 16.172V17H74.418V16.172H76.122C75.906 15.748 75.798 15.072 75.798 14.144C75.798 13.32 75.882 12.684 76.05 12.236C76.226 11.788 76.514 11.472 76.914 11.288C77.322 11.104 77.898 11.012 78.642 11.012C79.25 11.012 79.802 11.04 80.298 11.096L80.634 11.132V16.172H81.69ZM76.71 14.12C76.71 15.136 76.858 15.82 77.154 16.172H79.71V11.864C79.166 11.824 78.782 11.804 78.558 11.804C78.054 11.804 77.67 11.88 77.406 12.032C77.142 12.184 76.958 12.424 76.854 12.752C76.758 13.08 76.71 13.536 76.71 14.12ZM77.742 8.876H78.654V9.884H77.742V8.876ZM85.2341 10.696C84.9461 10.696 84.7021 10.588 84.5021 10.372C84.2941 10.148 84.1901 9.88 84.1901 9.568C84.1901 9.256 84.2941 8.992 84.5021 8.776C84.7021 8.552 84.9461 8.44 85.2341 8.44C85.5301 8.44 85.7821 8.552 85.9901 8.776C86.1981 8.992 86.3021 9.256 86.3021 9.568C86.3021 9.88 86.1981 10.148 85.9901 10.372C85.7821 10.588 85.5301 10.696 85.2341 10.696ZM85.2461 10.204C85.3981 10.204 85.5301 10.144 85.6421 10.024C85.7541 9.896 85.8101 9.744 85.8101 9.568C85.8101 9.392 85.7541 9.244 85.6421 9.124C85.5381 9.004 85.4061 8.944 85.2461 8.944C85.0861 8.944 84.9541 9.004 84.8501 9.124C84.7381 9.244 84.6821 9.392 84.6821 9.568C84.6821 9.744 84.7381 9.896 84.8501 10.024C84.9621 10.144 85.0941 10.204 85.2461 10.204ZM88.7993 16.172V17H81.6953V16.172H86.5073V12.92C86.5073 12.52 86.4033 12.22 86.1953 12.02C85.9873 11.812 85.6753 11.708 85.2593 11.708C84.8993 11.708 84.1873 11.772 83.1233 11.9L82.7873 11.936L82.7513 11.252C83.9593 11.004 84.8633 10.88 85.4633 10.88C86.7753 10.88 87.4313 11.564 87.4313 12.932V16.172H88.7993ZM91.3918 18.948L93.9598 18.444V19.044L91.3918 19.548V18.948ZM97.1249 16.172V17H96.7409C96.5889 17 96.4249 16.96 96.2489 16.88C96.0809 16.792 95.9249 16.676 95.7809 16.532V17H88.7969V16.172H90.7769C90.6649 15.484 90.6089 14.784 90.6089 14.072C90.6089 13.536 90.6409 13.008 90.7049 12.488C90.7689 11.96 90.8409 11.532 90.9209 11.204C91.1129 11.124 91.3929 11.052 91.7609 10.988C92.1289 10.916 92.5169 10.88 92.9249 10.88C93.9009 10.88 94.6209 11.12 95.0849 11.6C95.5489 12.08 95.7809 12.88 95.7809 14V15.716C96.0369 16.02 96.3569 16.172 96.7409 16.172H97.1249ZM91.5329 14.072C91.5329 14.464 91.5489 14.856 91.5809 15.248C91.6209 15.632 91.6609 15.94 91.7009 16.172H94.8569V13.988C94.8569 13.172 94.6849 12.588 94.3409 12.236C93.9969 11.884 93.4729 11.708 92.7689 11.708C92.3769 11.708 92.0289 11.748 91.7249 11.828C91.5969 12.524 91.5329 13.272 91.5329 14.072ZM99.5289 8.384V17H97.1289V16.172H98.6049V8.384H99.5289ZM101.689 8.384H102.613V17H101.689V8.384Z" fill="white"/>
</g>
<path d="M9.97 25.436L7.384 26L7.288 25.64L7.894 25.484C7.754 25.348 7.648 25.198 7.576 25.034C7.508 24.866 7.474 24.692 7.474 24.512C7.474 24.296 7.524 24.092 7.624 23.9C7.728 23.704 7.874 23.548 8.062 23.432C8.25 23.312 8.468 23.252 8.716 23.252C8.972 23.252 9.242 23.316 9.526 23.444L9.442 23.828C9.258 23.748 9.078 23.708 8.902 23.708C8.718 23.708 8.556 23.752 8.416 23.84C8.28 23.924 8.174 24.036 8.098 24.176C8.026 24.316 7.99 24.466 7.99 24.626C7.99 24.77 8.02 24.906 8.08 25.034C8.14 25.162 8.23 25.274 8.35 25.37L9.862 24.986L9.97 25.436ZM15.8325 26H15.0705V26.078C15.0705 26.506 14.9565 26.848 14.7285 27.104C14.5005 27.36 14.1725 27.488 13.7445 27.488H12.1665C11.8745 27.488 11.6085 27.434 11.3685 27.326C11.1285 27.218 10.9385 27.066 10.7985 26.87C10.6585 26.678 10.5885 26.458 10.5885 26.21C10.5885 25.966 10.6405 25.524 10.7445 24.884L11.1825 24.956C11.0945 25.544 11.0505 25.928 11.0505 26.108C11.0505 26.296 11.0985 26.464 11.1945 26.612C11.2945 26.76 11.4265 26.874 11.5905 26.954C11.7585 27.034 11.9405 27.074 12.1365 27.074L13.7205 27.08C14.0045 27.08 14.2225 26.988 14.3745 26.804C14.5305 26.624 14.6085 26.394 14.6085 26.114C14.6085 26.062 14.6065 26.024 14.6025 26H14.4585C14.1465 26 13.9005 25.942 13.7205 25.826L13.9125 25.484C13.9845 25.532 14.0605 25.562 14.1405 25.574C14.2245 25.582 14.3445 25.586 14.5005 25.586H15.8325V26ZM12.2205 27.92H12.6765V28.424H12.2205V27.92ZM12.9705 27.92H13.4265V28.424H12.9705V27.92ZM20.2849 23C20.3369 23.228 20.3809 23.47 20.4169 23.726C20.4569 23.982 20.4769 24.184 20.4769 24.332V26H19.3609C19.1169 26 18.8949 25.916 18.6949 25.748C18.5509 25.916 18.3609 26 18.1249 26H15.9529V25.586H16.9249V23.3H17.3869V25.586H17.9809C18.1649 25.586 18.2969 25.508 18.3769 25.352C18.4609 25.192 18.5029 24.992 18.5029 24.752V23.3H18.9649V24.746C18.9649 24.99 18.9369 25.202 18.8809 25.382C18.9409 25.434 19.0169 25.482 19.1089 25.526C19.2009 25.566 19.2929 25.586 19.3849 25.586H20.0149V24.284C20.0149 24.132 20.0029 23.942 19.9789 23.714C19.9589 23.482 19.9349 23.25 19.9069 23.018L20.2849 23ZM18.5029 21.206H18.9529V21.692H18.5029V21.206ZM18.1249 21.938H18.5809V22.442H18.1249V21.938ZM18.8749 21.938H19.3309V22.442H18.8749V21.938ZM26.4766 26H25.7866V26.24C25.7866 26.508 25.7166 26.736 25.5766 26.924C25.4406 27.112 25.2566 27.252 25.0246 27.344C24.7966 27.44 24.5466 27.488 24.2746 27.488C23.9826 27.488 23.7166 27.434 23.4766 27.326C23.2366 27.218 23.0466 27.068 22.9066 26.876C22.7666 26.684 22.6966 26.464 22.6966 26.216C22.6966 26.064 22.7206 25.808 22.7686 25.448C22.8166 25.088 22.8726 24.726 22.9366 24.362L23.3806 24.386C23.3206 24.778 23.2686 25.148 23.2246 25.496C23.1806 25.84 23.1586 26.07 23.1586 26.186C23.1586 26.358 23.2066 26.512 23.3026 26.648C23.4026 26.784 23.5366 26.888 23.7046 26.96C23.8726 27.036 24.0586 27.074 24.2626 27.074C24.5586 27.074 24.8086 26.996 25.0126 26.84C25.2206 26.688 25.3246 26.47 25.3246 26.186V21.692H25.7866V25.586H26.4766V26ZM28.7441 23.408C29.0921 23.408 29.3461 23.53 29.5061 23.774C29.6701 24.018 29.7521 24.334 29.7521 24.722V26H26.5961V25.586H29.2901V24.716C29.2901 24.476 29.2441 24.268 29.1521 24.092C29.0641 23.916 28.9161 23.826 28.7081 23.822H27.0821L26.7761 23.408L27.0881 22.796C27.1601 22.652 27.2681 22.478 27.4121 22.274C27.5601 22.066 27.7081 21.872 27.8561 21.692L28.1861 21.878C28.0021 22.154 27.8641 22.368 27.7721 22.52C27.6801 22.668 27.5961 22.816 27.5201 22.964L27.2921 23.408H28.7441ZM35.6901 26H35.0001V26.24C35.0001 26.508 34.9301 26.736 34.7901 26.924C34.6541 27.112 34.4701 27.252 34.2381 27.344C34.0101 27.44 33.7601 27.488 33.4881 27.488C33.1961 27.488 32.9301 27.434 32.6901 27.326C32.4501 27.218 32.2601 27.068 32.1201 26.876C31.9801 26.684 31.9101 26.464 31.9101 26.216C31.9101 26.064 31.9341 25.808 31.9821 25.448C32.0301 25.088 32.0861 24.726 32.1501 24.362L32.5941 24.386C32.5341 24.778 32.4821 25.148 32.4381 25.496C32.3941 25.84 32.3721 26.07 32.3721 26.186C32.3721 26.358 32.4201 26.512 32.5161 26.648C32.6161 26.784 32.7501 26.888 32.9181 26.96C33.0861 27.036 33.2721 27.074 33.4761 27.074C33.7721 27.074 34.0221 26.996 34.2261 26.84C34.4341 26.688 34.5381 26.47 34.5381 26.186V21.692H35.0001V25.586H35.6901V26ZM39.9736 25.586V26H39.7816C39.7056 26 39.6236 25.98 39.5356 25.94C39.4516 25.896 39.3736 25.838 39.3016 25.766V26H35.8096V25.586H36.7996C36.7436 25.242 36.7156 24.892 36.7156 24.536C36.7156 24.268 36.7316 24.004 36.7636 23.744C36.7956 23.48 36.8316 23.266 36.8716 23.102C36.9676 23.062 37.1076 23.026 37.2916 22.994C37.4756 22.958 37.6696 22.94 37.8736 22.94C38.3616 22.94 38.7216 23.06 38.9536 23.3C39.1856 23.54 39.3016 23.94 39.3016 24.5V25.358C39.4296 25.51 39.5896 25.586 39.7816 25.586H39.9736ZM37.1776 24.536C37.1776 24.732 37.1856 24.928 37.2016 25.124C37.2216 25.316 37.2416 25.47 37.2616 25.586H38.8396V24.494C38.8396 24.086 38.7536 23.794 38.5816 23.618C38.4096 23.442 38.1476 23.354 37.7956 23.354C37.5996 23.354 37.4256 23.374 37.2736 23.414C37.2096 23.762 37.1776 24.136 37.1776 24.536ZM45.1836 25.586V26H43.5036C43.2596 26 43.0376 25.916 42.8376 25.748C42.6936 25.916 42.5036 26 42.2676 26H40.0956V25.586H41.0676V23.3H41.5296V25.586H42.1236C42.3076 25.586 42.4396 25.508 42.5196 25.352C42.6036 25.192 42.6456 24.992 42.6456 24.752V23.3H43.1076V24.746C43.1076 24.99 43.0796 25.202 43.0236 25.382C43.0836 25.434 43.1596 25.482 43.2516 25.526C43.3436 25.566 43.4356 25.586 43.5276 25.586H44.1576V24.284C44.1576 24.132 44.1456 23.942 44.1216 23.714C44.1016 23.482 44.0776 23.25 44.0496 23.018L44.4276 23C44.4796 23.228 44.5236 23.47 44.5596 23.726C44.5996 23.982 44.6196 24.184 44.6196 24.332V25.586H45.1836ZM42.5256 21.206H42.9756V21.692H42.5256V21.206ZM42.1476 21.938H42.6036V22.442H42.1476V21.938ZM42.8976 21.938H43.3536V22.442H42.8976V21.938ZM46.6576 23V26H45.3016V25.586H46.1956V23H46.6576ZM45.8176 26.48H46.2736V26.984H45.8176V26.48ZM46.5676 26.48H47.0236V26.984H46.5676V26.48ZM49.4559 25.358H49.8279L49.5519 26.738H49.0539L49.4559 25.358ZM51.0798 26.024L52.3098 21.914L52.5978 22.01L51.3678 26.108L51.0798 26.024ZM50.9778 23.654C50.7658 23.654 50.6018 23.584 50.4858 23.444C50.3738 23.3 50.3178 23.086 50.3178 22.802C50.3178 22.254 50.5378 21.98 50.9778 21.98C51.4178 21.98 51.6378 22.254 51.6378 22.802C51.6378 23.086 51.5798 23.3 51.4638 23.444C51.3518 23.584 51.1898 23.654 50.9778 23.654ZM50.9838 23.348C51.0838 23.348 51.1578 23.304 51.2058 23.216C51.2538 23.124 51.2778 22.984 51.2778 22.796C51.2778 22.62 51.2538 22.492 51.2058 22.412C51.1618 22.328 51.0878 22.286 50.9838 22.286C50.8798 22.286 50.8038 22.328 50.7558 22.412C50.7078 22.492 50.6838 22.62 50.6838 22.796C50.6838 23.164 50.7838 23.348 50.9838 23.348ZM52.6818 26.06C52.4738 26.06 52.3118 25.988 52.1958 25.844C52.0838 25.7 52.0278 25.488 52.0278 25.208C52.0278 24.66 52.2478 24.386 52.6878 24.386C53.1238 24.386 53.3418 24.658 53.3418 25.202C53.3418 25.486 53.2838 25.7 53.1678 25.844C53.0558 25.988 52.8938 26.06 52.6818 26.06ZM52.6878 25.754C52.7918 25.754 52.8658 25.71 52.9098 25.622C52.9578 25.534 52.9818 25.398 52.9818 25.214C52.9818 25.03 52.9598 24.898 52.9158 24.818C52.8718 24.734 52.7958 24.692 52.6878 24.692C52.5798 24.692 52.5018 24.732 52.4538 24.812C52.4098 24.892 52.3878 25.022 52.3878 25.202C52.3878 25.394 52.4118 25.534 52.4598 25.622C52.5078 25.71 52.5838 25.754 52.6878 25.754ZM55.4993 22.556L54.4793 23.228L54.2693 22.88L55.5293 22.04H55.9613V26H55.4993V22.556ZM58.7847 26.06C58.4567 26.06 58.1867 25.994 57.9747 25.862C57.7627 25.73 57.6027 25.514 57.4947 25.214C57.3907 24.914 57.3387 24.516 57.3387 24.02C57.3387 23.524 57.3907 23.126 57.4947 22.826C57.6027 22.526 57.7627 22.31 57.9747 22.178C58.1867 22.042 58.4567 21.974 58.7847 21.974C59.2727 21.974 59.6347 22.132 59.8707 22.448C60.1067 22.764 60.2247 23.288 60.2247 24.02C60.2247 24.516 60.1707 24.914 60.0627 25.214C59.9587 25.514 59.8007 25.73 59.5887 25.862C59.3767 25.994 59.1087 26.06 58.7847 26.06ZM58.7847 25.652C59.0127 25.652 59.1967 25.602 59.3367 25.502C59.4767 25.398 59.5807 25.228 59.6487 24.992C59.7167 24.752 59.7507 24.428 59.7507 24.02C59.7507 23.612 59.7167 23.29 59.6487 23.054C59.5807 22.814 59.4767 22.644 59.3367 22.544C59.1967 22.44 59.0127 22.388 58.7847 22.388C58.5567 22.388 58.3727 22.44 58.2327 22.544C58.0927 22.644 57.9887 22.814 57.9207 23.054C57.8527 23.29 57.8187 23.612 57.8187 24.02C57.8187 24.428 57.8527 24.752 57.9207 24.992C57.9887 25.228 58.0927 25.398 58.2327 25.502C58.3727 25.602 58.5567 25.652 58.7847 25.652ZM62.2621 26.06C61.9341 26.06 61.6641 25.994 61.4521 25.862C61.2401 25.73 61.0801 25.514 60.9721 25.214C60.8681 24.914 60.8161 24.516 60.8161 24.02C60.8161 23.524 60.8681 23.126 60.9721 22.826C61.0801 22.526 61.2401 22.31 61.4521 22.178C61.6641 22.042 61.9341 21.974 62.2621 21.974C62.7501 21.974 63.1121 22.132 63.3481 22.448C63.5841 22.764 63.7021 23.288 63.7021 24.02C63.7021 24.516 63.6481 24.914 63.5401 25.214C63.4361 25.514 63.2781 25.73 63.0661 25.862C62.8541 25.994 62.5861 26.06 62.2621 26.06ZM62.2621 25.652C62.4901 25.652 62.6741 25.602 62.8141 25.502C62.9541 25.398 63.0581 25.228 63.1261 24.992C63.1941 24.752 63.2281 24.428 63.2281 24.02C63.2281 23.612 63.1941 23.29 63.1261 23.054C63.0581 22.814 62.9541 22.644 62.8141 22.544C62.6741 22.44 62.4901 22.388 62.2621 22.388C62.0341 22.388 61.8501 22.44 61.7101 22.544C61.5701 22.644 61.4661 22.814 61.3981 23.054C61.3301 23.29 61.2961 23.612 61.2961 24.02C61.2961 24.428 61.3301 24.752 61.3981 24.992C61.4661 25.228 61.5701 25.398 61.7101 25.502C61.8501 25.602 62.0341 25.652 62.2621 25.652ZM69.1519 25.586V26H67.1539C66.7979 26 66.5179 25.95 66.3139 25.85C66.1099 25.75 65.9619 25.592 65.8699 25.376C65.7819 25.156 65.7379 24.858 65.7379 24.482C65.7379 24.11 65.7799 23.812 65.8639 23.588C65.9519 23.364 66.0939 23.2 66.2899 23.096C66.4899 22.992 66.7579 22.94 67.0939 22.94C67.2419 22.94 67.4679 22.948 67.7719 22.964C68.0799 22.976 68.3119 22.99 68.4679 23.006V25.586H69.1519ZM66.1999 24.47C66.1999 24.746 66.2319 24.964 66.2959 25.124C66.3639 25.284 66.4719 25.402 66.6199 25.478C66.7679 25.55 66.9719 25.586 67.2319 25.586H68.0059V23.396C67.6539 23.372 67.3819 23.36 67.1899 23.36C66.8259 23.36 66.5699 23.446 66.4219 23.618C66.2739 23.79 66.1999 24.074 66.1999 24.47ZM66.6679 21.938H67.1239V22.442H66.6679V21.938ZM67.4179 21.938H67.8739V22.442H67.4179V21.938ZM71.5241 25.586V26H69.2741V25.586H70.1681V23H70.6301V25.586H71.5241ZM70.1681 26.48H70.6241V26.984H70.1681V26.48ZM76.7321 25.586V26H75.0521C74.8081 26 74.5861 25.916 74.3861 25.748C74.2421 25.916 74.0521 26 73.8161 26H71.6441V25.586H72.6161V23.3H73.0781V25.586H73.6721C73.8561 25.586 73.9881 25.508 74.0681 25.352C74.1521 25.192 74.1941 24.992 74.1941 24.752V23.3H74.6561V24.746C74.6561 24.99 74.6281 25.202 74.5721 25.382C74.6321 25.434 74.7081 25.482 74.8001 25.526C74.8921 25.566 74.9841 25.586 75.0761 25.586H75.7061V24.284C75.7061 24.132 75.6941 23.942 75.6701 23.714C75.6501 23.482 75.6261 23.25 75.5981 23.018L75.9761 23C76.0281 23.228 76.0721 23.47 76.1081 23.726C76.1481 23.982 76.1681 24.184 76.1681 24.332V25.586H76.7321ZM79.1001 25.586V26H76.8501V25.586H77.7441V23H78.2061V25.586H79.1001ZM77.7441 21.938H78.2001V22.442H77.7441V21.938ZM80.5761 23V26H79.2201V25.586H80.1141V23H80.5761ZM80.1141 26.48H80.5701V26.984H80.1141V26.48ZM87.3344 23.066V26.222C87.3344 26.606 87.2104 26.914 86.9624 27.146C86.7144 27.378 86.3724 27.494 85.9364 27.494H84.2504C83.8144 27.494 83.4724 27.378 83.2244 27.146C82.9764 26.914 82.8524 26.604 82.8524 26.216C82.8524 25.924 82.9244 25.358 83.0684 24.518L83.5064 24.59C83.4384 25.026 83.3884 25.354 83.3564 25.574C83.3284 25.794 83.3144 25.974 83.3144 26.114C83.3144 26.414 83.3924 26.65 83.5484 26.822C83.7084 26.994 83.9484 27.08 84.2684 27.08H85.9124C86.2364 27.08 86.4764 26.994 86.6324 26.822C86.7924 26.65 86.8724 26.414 86.8724 26.114V26H86.0024C85.7264 26 85.5104 25.96 85.3544 25.88C85.2024 25.8 85.0904 25.66 85.0184 25.46C84.9504 25.26 84.9164 24.974 84.9164 24.602C84.9164 24.218 84.9564 23.912 85.0364 23.684C85.1164 23.452 85.2524 23.28 85.4444 23.168C85.6364 23.056 85.9064 23 86.2544 23C86.3744 23 86.5264 23.006 86.7104 23.018C86.8944 23.026 87.0464 23.036 87.1664 23.048L87.3344 23.066ZM85.3784 24.578C85.3784 24.846 85.4024 25.052 85.4504 25.196C85.5024 25.34 85.5844 25.442 85.6964 25.502C85.8084 25.558 85.9624 25.586 86.1584 25.586H86.8724V23.438C86.5964 23.414 86.4084 23.402 86.3084 23.402C86.0684 23.402 85.8804 23.444 85.7444 23.528C85.6124 23.608 85.5184 23.734 85.4624 23.906C85.4064 24.074 85.3784 24.298 85.3784 24.578ZM85.7324 21.938H86.1884V22.442H85.7324V21.938ZM86.4824 21.938H86.9384V22.442H86.4824V21.938ZM91.279 26H90.529C90.505 26.504 90.411 26.878 90.247 27.122C90.087 27.366 89.833 27.488 89.485 27.488C89.301 27.488 88.999 27.458 88.579 27.398V26.99C88.951 27.046 89.243 27.074 89.455 27.074C89.595 27.074 89.707 27.048 89.791 26.996C89.879 26.948 89.949 26.846 90.001 26.69C90.053 26.534 90.079 26.304 90.079 26H89.197C88.761 26 88.471 25.862 88.327 25.586C88.187 25.31 88.117 24.952 88.117 24.512C88.117 24.14 88.153 23.838 88.225 23.606C88.297 23.37 88.427 23.192 88.615 23.072C88.803 22.948 89.065 22.886 89.401 22.886C89.561 22.886 89.753 22.898 89.977 22.922C90.205 22.946 90.393 22.972 90.541 23V25.586H91.279V26ZM88.579 24.5C88.579 24.82 88.631 25.082 88.735 25.286C88.839 25.486 89.051 25.586 89.371 25.586H90.079V23.342C89.863 23.314 89.675 23.3 89.515 23.3C89.271 23.3 89.081 23.346 88.945 23.438C88.809 23.526 88.713 23.658 88.657 23.834C88.605 24.006 88.579 24.228 88.579 24.5ZM92.7573 23V26H91.4013V25.586H92.2953V23H92.7573ZM92.2953 21.206H92.7453V21.692H92.2953V21.206ZM91.9173 21.938H92.3733V22.442H91.9173V21.938ZM92.6673 21.938H93.1233V22.442H92.6673V21.938ZM96.7572 26H96.0072C95.9832 26.504 95.8892 26.878 95.7252 27.122C95.5652 27.366 95.3112 27.488 94.9632 27.488C94.7792 27.488 94.4772 27.458 94.0572 27.398V26.99C94.4292 27.046 94.7212 27.074 94.9332 27.074C95.0732 27.074 95.1852 27.048 95.2692 26.996C95.3572 26.948 95.4272 26.846 95.4792 26.69C95.5312 26.534 95.5572 26.304 95.5572 26H94.6752C94.2392 26 93.9492 25.862 93.8052 25.586C93.6652 25.31 93.5952 24.952 93.5952 24.512C93.5952 24.14 93.6312 23.838 93.7032 23.606C93.7752 23.37 93.9052 23.192 94.0932 23.072C94.2812 22.948 94.5432 22.886 94.8792 22.886C95.0392 22.886 95.2312 22.898 95.4552 22.922C95.6832 22.946 95.8712 22.972 96.0192 23V25.586H96.7572V26ZM94.0572 24.5C94.0572 24.82 94.1092 25.082 94.2132 25.286C94.3172 25.486 94.5292 25.586 94.8492 25.586H95.5572V23.342C95.3412 23.314 95.1532 23.3 94.9932 23.3C94.7492 23.3 94.5592 23.346 94.4232 23.438C94.2872 23.526 94.1912 23.658 94.1352 23.834C94.0832 24.006 94.0572 24.228 94.0572 24.5ZM98.9435 22.94C99.4315 22.94 99.7915 23.06 100.024 23.3C100.256 23.54 100.372 23.94 100.372 24.5V26H96.8795V25.586H97.8695C97.8135 25.242 97.7855 24.892 97.7855 24.536C97.7855 24.268 97.8015 24.004 97.8335 23.744C97.8655 23.48 97.9015 23.266 97.9415 23.102C98.0375 23.062 98.1775 23.026 98.3615 22.994C98.5455 22.958 98.7395 22.94 98.9435 22.94ZM98.2475 24.536C98.2475 24.732 98.2555 24.928 98.2715 25.124C98.2915 25.316 98.3115 25.47 98.3315 25.586H99.9095V24.494C99.9095 24.086 99.8235 23.794 99.6515 23.618C99.4795 23.442 99.2175 23.354 98.8655 23.354C98.6695 23.354 98.4955 23.374 98.3435 23.414C98.2795 23.762 98.2475 24.136 98.2475 24.536Z" fill="white"/>
<g filter="url(#filter1_d_77_23)">
<rect x="108" y="9.19617" width="10.4783" height="14.4934" rx="1" transform="rotate(-17.7595 108 9.19617)" fill="#083F36"/>
</g>
<g filter="url(#filter2_d_77_23)">
<rect x="112" y="6.19617" width="10.4783" height="14.4934" rx="1" transform="rotate(-17.7595 112 6.19617)" fill="#099981"/>
</g>
<g filter="url(#filter3_d_77_23)">
<rect x="114.676" y="2.38406" width="10.4783" height="14.4934" rx="1" transform="rotate(-10.9867 114.676 2.38406)" fill="white"/>
<rect x="114.734" y="2.42362" width="10.3783" height="14.3934" rx="0.95" transform="rotate(-10.9867 114.734 2.42362)" stroke="white" stroke-width="0.1"/>
</g>
<g filter="url(#filter4_d_77_23)">
<path d="M111.684 15.9823H110.717C108.984 15.9823 107.837 17.7812 108.568 19.3522L110.327 23.1318C111.005 24.5898 112.468 25.5221 114.076 25.5221C115.872 25.5221 117.462 24.363 118.012 22.6534L118.879 19.9578C118.896 19.9037 118.905 19.8471 118.905 19.7902C118.905 19.1191 119.881 19.0374 119.992 19.6992L120.318 21.6283L121.9 27.3347C122.259 28.6306 123.4 29.5563 124.743 29.6403C126.269 29.7358 127.642 28.7234 127.946 27.2247C128.388 25.0387 128.938 21.8863 128.995 19.4867C129.063 16.5755 128.457 12.6442 128.017 10.2178C127.781 8.91828 126.64 8 125.32 8C123.56 8 122.233 9.59926 122.521 11.3352C122.909 13.6691 123.287 16.3156 122.941 15.9823C122.65 15.7014 122.032 14.7904 121.469 13.9201C120.74 12.7917 119.498 12.0885 118.154 12.0885C116.175 12.0885 114.517 13.588 114.32 15.5573L114.068 18.0674C114.064 18.1047 114.068 18.1424 114.078 18.1786C114.172 18.513 113.717 18.7124 113.535 18.4161L112.233 16.2894C112.116 16.0986 111.908 15.9823 111.684 15.9823Z" fill="#083F36"/>
</g>
<path d="M115.668 19.2655C116 20.5 114.5 15.5 113.045 14.9823C110.661 14.1345 109.075 17.292 110.142 19.5854L111.34 22.1588C112.01 23.6003 113.456 24.5221 115.046 24.5221C116.852 24.5221 118.441 23.3359 118.979 21.6119C119.381 20.3254 119.791 19.0597 119.905 18.8761C120.18 18.4345 120.912 18.2842 121 18.7967C121.132 19.5705 121.245 20.2271 121.318 20.6283C121.418 21.1798 121.595 22.2135 121.79 23.3712C122.36 26.7403 125.186 30.0188 128.38 28.8053C130.5 28 130.5 22.5 129.995 18.4867C129.673 15.9292 129.187 11.9664 128.878 9.42806C128.709 8.04082 127.531 7 126.134 7C124.447 7 123.153 8.49757 123.387 10.1682C123.718 12.5243 124.084 15.2839 123.941 14.9823C123.816 14.7199 123.144 13.7228 122.511 12.8034C121.768 11.7242 120.538 11.0885 119.228 11.0885C117.195 11.0885 115.475 12.6039 115.26 14.6258C115.135 15.7957 115.037 16.8667 115.062 17.1239C115.125 17.7478 115.336 18.031 115.668 19.2655Z" fill="#099981"/>
<path d="M116.668 18.2655C117 19.5 115.5 14.5 114.045 13.9823C111.661 13.1345 110.075 16.292 111.142 18.5854L112.34 21.1588C113.01 22.6003 114.456 23.5221 116.046 23.5221C117.852 23.5221 119.441 22.3359 119.979 20.6119C120.381 19.3254 120.791 18.0597 120.905 17.8761C121.18 17.4345 121.912 17.2842 122 17.7967C122.132 18.5705 122.245 19.2271 122.318 19.6283C122.418 20.1798 122.595 21.2135 122.79 22.3712C123.36 25.7403 126.186 29.0188 129.38 27.8053C131.5 27 131.5 21.5 130.995 17.4867C130.673 14.9292 130.187 10.9664 129.878 8.42806C129.709 7.04082 128.531 6 127.134 6C125.447 6 124.153 7.49757 124.387 9.1682C124.718 11.5243 125.084 14.2839 124.941 13.9823C124.816 13.7199 124.144 12.7228 123.511 11.8034C122.768 10.7242 121.538 10.0885 120.228 10.0885C118.195 10.0885 116.475 11.6039 116.26 13.6258C116.135 14.7957 116.037 15.8667 116.062 16.1239C116.125 16.7478 116.336 17.031 116.668 18.2655Z" fill="#62AEA2"/>
<defs>
<filter id="filter0_d_77_23" x="0.47998" y="7.53201" width="106.133" height="20.016" filterUnits="userSpaceOnUse" color-interpolation-filters="sRGB">
<feFlood flood-opacity="0" result="BackgroundImageFix"/>
<feColorMatrix in="SourceAlpha" type="matrix" values="0 0 0 0 0 0 0 0 0 0 0 0 0 0 0 0 0 0 127 0" result="hardAlpha"/>
<feOffset dy="4"/>
<feGaussianBlur stdDeviation="2"/>
<feComposite in2="hardAlpha" operator="out"/>
<feColorMatrix type="matrix" values="0 0 0 0 0 0 0 0 0 0 0 0 0 0 0 0 0 0 0.25 0"/>
<feBlend mode="normal" in2="BackgroundImageFix" result="effect1_dropShadow_77_23"/>
<feBlend mode="normal" in="SourceGraphic" in2="effect1_dropShadow_77_23" result="shape"/>
</filter>
<filter id="filter1_d_77_23" x="104.257" y="6.25714" width="21.8856" height="24.4846" filterUnits="userSpaceOnUse" color-interpolation-filters="sRGB">
<feFlood flood-opacity="0" result="BackgroundImageFix"/>
<feColorMatrix in="SourceAlpha" type="matrix" values="0 0 0 0 0 0 0 0 0 0 0 0 0 0 0 0 0 0 127 0" result="hardAlpha"/>
<feOffset dy="4"/>
<feGaussianBlur stdDeviation="2"/>
<feComposite in2="hardAlpha" operator="out"/>
<feColorMatrix type="matrix" values="0 0 0 0 0 0 0 0 0 0 0 0 0 0 0 0 0 0 0.25 0"/>
<feBlend mode="normal" in2="BackgroundImageFix" result="effect1_dropShadow_77_23"/>
<feBlend mode="normal" in="SourceGraphic" in2="effect1_dropShadow_77_23" result="shape"/>
</filter>
<filter id="filter2_d_77_23" x="108.257" y="3.25714" width="21.8856" height="24.4846" filterUnits="userSpaceOnUse" color-interpolation-filters="sRGB">
<feFlood flood-opacity="0" result="BackgroundImageFix"/>
<feColorMatrix in="SourceAlpha" type="matrix" values="0 0 0 0 0 0 0 0 0 0 0 0 0 0 0 0 0 0 127 0" result="hardAlpha"/>
<feOffset dy="4"/>
<feGaussianBlur stdDeviation="2"/>
<feComposite in2="hardAlpha" operator="out"/>
<feColorMatrix type="matrix" values="0 0 0 0 0 0 0 0 0 0 0 0 0 0 0 0 0 0 0.25 0"/>
<feBlend mode="normal" in2="BackgroundImageFix" result="effect1_dropShadow_77_23"/>
<feBlend mode="normal" in="SourceGraphic" in2="effect1_dropShadow_77_23" result="shape"/>
</filter>
<filter id="filter3_d_77_23" x="110.848" y="0.559174" width="20.7043" height="23.8806" filterUnits="userSpaceOnUse" color-interpolation-filters="sRGB">
<feFlood flood-opacity="0" result="BackgroundImageFix"/>
<feColorMatrix in="SourceAlpha" type="matrix" values="0 0 0 0 0 0 0 0 0 0 0 0 0 0 0 0 0 0 127 0" result="hardAlpha"/>
<feOffset dy="4"/>
<feGaussianBlur stdDeviation="2"/>
<feComposite in2="hardAlpha" operator="out"/>
<feColorMatrix type="matrix" values="0 0 0 0 0 0 0 0 0 0 0 0 0 0 0 0 0 0 0.25 0"/>
<feBlend mode="normal" in2="BackgroundImageFix" result="effect1_dropShadow_77_23"/>
<feBlend mode="normal" in="SourceGraphic" in2="effect1_dropShadow_77_23" result="shape"/>
</filter>
<filter id="filter4_d_77_23" x="104.344" y="8" width="28.6559" height="29.6465" filterUnits="userSpaceOnUse" color-interpolation-filters="sRGB">
<feFlood flood-opacity="0" result="BackgroundImageFix"/>
<feColorMatrix in="SourceAlpha" type="matrix" values="0 0 0 0 0 0 0 0 0 0 0 0 0 0 0 0 0 0 127 0" result="hardAlpha"/>
<feOffset dy="4"/>
<feGaussianBlur stdDeviation="2"/>
<feComposite in2="hardAlpha" operator="out"/>
<feColorMatrix type="matrix" values="0 0 0 0 0 0 0 0 0 0 0 0 0 0 0 0 0 0 0.25 0"/>
<feBlend mode="normal" in2="BackgroundImageFix" result="effect1_dropShadow_77_23"/>
<feBlend mode="normal" in="SourceGraphic" in2="effect1_dropShadow_77_23" result="shape"/>
</filter>
</defs>
</svg>
